<svg id="Layer_1" enable-background="new 0 0 512 512" height="512" viewBox="0 0 512 512" width="512" xmlns="http://www.w3.org/2000/svg"><path d="m512 274v-40h-32.319c-1.625-5.778-3.931-11.269-6.833-16.385l23.179-23.304-28.36-28.208-23.176 23.301c-5.151-2.885-10.678-5.169-16.491-6.763v-32.641h-40v32.897c-5.484 1.58-10.708 3.771-15.593 6.507l-23.176-23.301-28.36 28.208 23.179 23.304c-2.902 5.116-5.208 10.607-6.833 16.385h-33.217v40h33.218c1.625 5.777 3.931 11.269 6.832 16.384l-23.179 23.304 28.36 28.208 23.176-23.301c4.884 2.736 10.109 4.928 15.593 6.507v32.898h40v-32.641c5.813-1.594 11.34-3.878 16.491-6.763l23.176 23.301 28.36-28.208-23.179-23.304c2.902-5.116 5.208-10.607 6.833-16.385zm-69.671-17.111c-1.437 17.301-16.065 30.879-33.424 31.108-18.965.25-33.905-15.098-33.905-33.997 0-19 14.976-34 33.449-34 19.702 0 35.544 16.845 33.88 36.889zm-32.329-176.889v-12.826c0-16.389-10.487-34.633-32.059-55.773-15.407-15.1-40.476-15.1-55.882 0-21.572 21.14-32.059 39.384-32.059 55.773v12.826h-25v-12.826c0-16.389-10.487-34.633-32.059-55.773-15.408-15.1-40.477-15.1-55.882 0-21.572 21.14-32.059 39.384-32.059 55.773v12.826h-25v-12.826c0-16.389-10.487-34.633-32.059-55.773-15.407-15.1-40.476-15.1-55.882 0-21.572 21.14-32.059 39.384-32.059 55.773v377.652c0 16.389 10.487 34.633 32.059 55.773 7.704 7.551 17.821 11.325 27.941 11.325 10.118 0 20.239-3.775 27.941-11.324 21.572-21.141 32.059-39.385 32.059-55.774v-11.826h25v11.826c0 16.389 10.487 34.633 32.059 55.773 7.705 7.551 17.821 11.325 27.941 11.325 10.118 0 20.239-3.775 27.941-11.324 21.572-21.141 32.059-39.385 32.059-55.774v-11.826h25v11.826c0 16.389 10.487 34.633 32.059 55.773 7.705 7.551 17.821 11.326 27.941 11.325 10.118 0 20.239-3.775 27.941-11.324 21.572-21.141 32.059-39.385 32.059-55.774v-11.826h102v-40h-142l.001 51.77c-.143 2.253-4.016 11.526-20.001 27.206-15.985-15.678-19.858-24.953-20-27.15v-51.826h-65v-273h65l-.001-52.77c.143-2.253 4.016-11.526 20.001-27.206 15.985 15.678 19.858 24.953 20 27.15v52.826h142v-40zm-330 364.788c-.162 2.284-4.056 11.549-20 27.188-15.985-15.678-19.858-24.953-20-27.15l-.001-377.596c.143-2.253 4.015-11.526 20.001-27.206 15.985 15.678 19.858 24.953 20 27.15zm65-51.788h-25v-273h25zm80 51.788c-.162 2.284-4.056 11.549-20 27.188-15.985-15.678-19.858-24.953-20-27.15l-.001-377.596c.143-2.253 4.016-11.526 20.001-27.206 15.985 15.678 19.858 24.953 20 27.15z"/></svg>