<svg id="Layer_1" enable-background="new 0 0 512 512" height="512" viewBox="0 0 512 512" width="512" xmlns="http://www.w3.org/2000/svg"><path d="m172.929 325.713v-115.713h-40v115.177c-23.681 8.034-40.777 30.462-40.777 56.823 0 33.084 26.916 60 60 60s60-26.916 60-60c0-25.783-16.349-47.816-39.223-56.287zm-20.777 76.287c-11.028 0-20-8.972-20-20s8.972-20 20-20 20 8.972 20 20-8.972 20-20 20zm89.777-113.856v-198.09c.122-23.909-9.124-46.442-26.038-63.454-17.054-17.153-39.77-26.6-63.962-26.6-24.023 0-46.6 9.367-63.571 26.376-16.904 16.941-26.29 39.496-26.428 63.509v198.347c-25.531 24.621-40 58.286-40 93.768 0 71.682 58.318 130 130 130s130-58.318 130-130c-.001-35.843-14.468-69.53-40.001-93.856zm-90 183.856c-49.626 0-90-40.374-90-90 0-26.787 11.957-52.116 32.805-69.493l7.195-5.997v-216.447c.187-27.611 22.606-50.063 50-50.063 13.464 0 26.106 5.257 35.596 14.802 9.365 9.419 14.48 21.878 14.404 35.083v216.735l7.333 6.001c20.76 16.99 32.667 42.277 32.667 69.378 0 49.627-40.374 90.001-90 90.001zm309.858-165.53 28.284 28.284-92.51 92.51-91.754-91.489 28.243-28.325 42.878 42.755v-107.205h40v108.328zm-127.736-166.919-28.243-28.325 91.754-91.489 92.51 92.51-28.284 28.284-44.858-44.858v107.327h-40v-106.204z"/></svg>