<svg id="Layer_1" enable-background="new 0 0 512 512" height="512" viewBox="0 0 512 512" width="512" xmlns="http://www.w3.org/2000/svg"><path d="m366 160h40v137h-40zm80 10.225v49.246c16.024 15.629 26 37.43 26 61.529 0 47.421-38.58 86-86 86s-86-38.579-86-86c0-24.099 9.976-45.9 26-61.529v-49.246c-39.279 21.361-66 63.006-66 110.775 0 69.477 56.523 126 126 126s126-56.523 126-126c0-47.769-26.721-89.415-66-110.775zm-180.982 224.31c-9.391-10.001-17.558-21.161-24.263-33.242-1.111.424-2.218.852-3.343 1.251l-14.227 5.038 6.526 104.418h-84.422l6.542-104.666-14.104-5.093c-52.106-18.817-88.972-65.322-96.363-119.241h183.056c3.296-14.003 8.392-27.436 15.09-40h-151.514l-13.896-141.039c-.561-5.689 1.245-11.156 5.084-15.392 3.84-4.236 9.103-6.569 14.82-6.569h187.992c5.717 0 10.98 2.333 14.819 6.569s5.645 9.703 5.084 15.392l-7.979 80.981c4.181-2.792 8.498-5.426 12.969-7.857 8.634-6.815 18.696-11.454 29.344-13.642l4.084-41.443h42.683v-40h-44.467c-2.626-7.425-6.691-14.347-12.079-20.293-11.351-12.524-27.555-19.707-44.458-19.707h-187.992c-16.903 0-33.107 7.183-44.458 19.707s-16.91 29.354-15.253 46.176l13.509 137.117h-47.802v20c0 39.433 12.08 77.185 34.934 109.172 19.381 27.126 45.152 48.331 75.143 61.966l-7.366 117.862h169.578l-7.339-117.434c.022-.01.045-.021.068-.031z"/></svg>