<svg id="Layer_1" enable-background="new 0 0 512 512" height="512" viewBox="0 0 512 512" width="512" xmlns="http://www.w3.org/2000/svg"><path d="m208 85h-44.017v-26.014c0-32.525-26.916-58.986-60-58.986v.001-.001c-33.084 0-60 26.461-60 58.986v26.014h-43.983v163h208zm-124.017-26.014c0-10.469 8.972-18.986 20-18.986v-.001.001c11.028 0 20 8.517 20 18.986v26.014h-40zm84.017 149.014h-128v-83h128zm80 130h-50v-50h50zm264-162v276c0 33.084-26.916 60-60 60h-277c-33.084 0-60-26.916-60-60v-164h40v164c0 11.028 8.972 20 20 20h277c11.028 0 20-8.972 20-20v-276c0-11.028-8.972-20-20-20h-204v-40h204c33.084 0 60 26.916 60 60zm-314 202h50v50h-50zm90-90h50v50h-50zm140-40h-50v-50h50zm-50 130h50v50h-50zm0-90h50v50h-50zm-40-40h-50v-50h50zm-50 130h50v50h-50z"/></svg>