<svg id="Layer_1" enable-background="new 0 0 512 512" height="512" viewBox="0 0 512 512" width="512" xmlns="http://www.w3.org/2000/svg"><path d="m512 0h-512v122.476l20 79.55v73.974c0 63.038 24.548 122.303 69.123 166.877 44.574 44.575 103.839 69.123 166.877 69.123s122.303-24.548 166.877-69.123c44.575-44.574 69.123-103.839 69.123-166.877v-73.507c19.997-78.991 20-79.166 20-82.493zm-40 40v60h-52v40h46.495c-2.997 11.964-6.699 26.664-10.067 40h-400.72l-10.057-40h294.349v-40h-300v-60zm-90 306c0 69.477-56.523 126-126 126s-126-56.523-126-126 56.523-126 126-126 126 56.523 126 126zm-322-70v-56h88.05c-35.512 30.468-58.05 75.649-58.05 126 0 14.626 1.91 28.813 5.478 42.333-22.343-31.832-35.478-70.575-35.478-112.333zm392 0c0 41.758-13.135 80.501-35.478 112.333 3.568-13.52 5.478-27.707 5.478-42.333 0-50.351-22.538-95.532-58.05-126h88.05zm-196 130c33.084 0 60-26.916 60-60s-26.916-60-60-60-60 26.916-60 60 26.916 60 60 60zm0-80c11.028 0 20 8.972 20 20s-8.972 20-20 20-20-8.972-20-20 8.972-20 20-20z"/></svg>