<svg id="Layer_1" enable-background="new 0 0 512.284 512.284" height="512" viewBox="0 0 512.284 512.284" width="512" xmlns="http://www.w3.org/2000/svg"><path d="m256 472.142c-60.748 0-100-25.121-100-64 0-18.904 21.719-48.947 40.881-75.455 14.693-20.325 29.685-41.071 39.174-61.545h39.728c3.509 7.663 7.779 15.348 12.528 23.024 12.318-6.054 25.142-10.849 38.323-14.321-1.917-2.924-3.75-5.828-5.497-8.703h190.863v-24.017l-76.242-246.983h-360.576l-75.182 247.024v23.976h190.614c-7.662 12.524-17.176 25.697-26.15 38.111-24.923 34.477-48.464 67.04-48.464 98.889 0 62.206 56.262 104 140 104 20.204 0 38.804-2.437 55.403-7.003l-34.08-34.12c-6.766.734-13.877 1.123-21.323 1.123zm-209.312-241 58.13-191h301.424l58.961 191zm351.007 261c0 11.046-8.954 20-20 20-11.045 0-20-8.954-20-20s8.955-20 20-20c11.046 0 20 8.954 20 20zm63.195-59.723-28.269 28.299-14.15-14.134c-10.606-10.596-26.92-17.442-40.471-17.442-13.711 0-29.669 6.846-40.278 17.443l-14.15 14.134-28.268-28.3 14.15-14.134c17.996-17.975 44.415-29.142 68.546-29.142 23.97 0 50.744 11.166 68.74 29.143zm51.394-53.92-28.361 28.207-14.104-14.181c-25.259-25.397-57.743-39.384-91.471-39.383-33.736.001-66.222 13.987-91.471 39.381l-14.102 14.183-28.365-28.203 14.102-14.183c32.813-33.001 75.371-51.177 119.834-51.178 44.454-.001 87.013 18.173 119.834 51.176z"/></svg>