<svg id="Layer_1" enable-background="new 0 0 512 512" height="512" viewBox="0 0 512 512" width="512" xmlns="http://www.w3.org/2000/svg"><path d="m368 472h-308c-11.028 0-20-8.972-20-20v-300h348v12h40v-104c0-33.084-26.916-60-60-60h-308c-33.084 0-60 26.916-60 60v392c0 33.084 26.916 60 60 60h308c33.084 0 60-26.916 60-60h-40c0 11.028-8.972 20-20 20zm-308-432h308c11.028 0 20 8.972 20 20v52h-348v-52c0-11.028 8.972-20 20-20zm258 36c0-11.046 8.954-20 20-20s20 8.954 20 20-8.954 20-20 20-20-8.954-20-20zm-71 0c0-11.046 8.954-20 20-20s20 8.954 20 20-8.954 20-20 20-20-8.954-20-20zm265 252v-40h-32.319c-1.625-5.778-3.931-11.269-6.833-16.385l23.18-23.304-28.359-28.208-23.177 23.301c-5.151-2.885-10.679-5.169-16.491-6.763v-32.641h-40v32.897c-5.487 1.581-10.715 3.774-15.602 6.513l-23.167-23.306-28.36 28.208 23.174 23.313c-2.899 5.113-5.204 10.601-6.827 16.375h-33.219v40h33.218c1.625 5.778 3.931 11.269 6.833 16.385l-23.18 23.304 28.359 28.208 23.177-23.301c4.885 2.736 10.109 4.928 15.593 6.507v32.897h40v-32.641c5.813-1.594 11.34-3.878 16.491-6.763l23.176 23.301 28.36-28.208-23.179-23.304c2.902-5.116 5.208-10.607 6.833-16.385zm-69.551-20c0 18.748-15.252 34-34 34s-34-15.252-34-34 15.252-34 34-34 34 15.252 34 34zm-290.875-52.508c17.787 12.481 29.426 33.129 29.426 56.508 0 23.372-11.632 44.015-29.41 56.497 15.572 17.47 38.218 28.503 63.41 28.503 25.024 0 47.54-10.883 63.104-28.151 5.863 12.465 13.463 23.955 22.489 34.16-22.384 21.063-52.505 33.991-85.593 33.991-68.925 0-125-56.075-125-125s56.075-125 125-125c31.154 0 59.681 11.458 81.593 30.379-8.573 10.57-15.681 22.371-21.008 35.098-15.427-15.708-36.879-25.477-60.585-25.477-25.191 0-47.849 11.023-63.426 28.492z"/></svg>