<svg id="Layer_1" enable-background="new 0 0 512 512" height="512" viewBox="0 0 512 512" width="512" xmlns="http://www.w3.org/2000/svg"><path style="fill:#FFD61A1F" d="m276 471.745v-62h95c33.084 0 60-26.916 60-60v-145.673l31.01 26.886 26.203-30.223-231.234-200.48-230.528 200.526 26.252 30.18 30.297-26.354v145.138c0 33.084 26.916 60 60 60h93v62h-236v40h512v-40zm-153-122v-179.933l134.021-116.58 133.979 116.16v180.353c0 11.028-8.972 20-20 20h-228c-11.028 0-20-8.972-20-20zm77-36h120v-120h-120zm40-80h40v40h-40z"/></svg>