<svg id="Layer_1" enable-background="new 0 0 512 512" height="512" viewBox="0 0 512 512" width="512" xmlns="http://www.w3.org/2000/svg"><path d="m223.56 472h-77.145c-10.38 0-18.94-7.793-19.912-18.127l-32.036-340.94h283.912l-11.357 112.067h40.176l12.051-112.067h32.751v-40h-121v-12.933c0-33.084-26.916-60-60-60h-70c-33.084 0-60 26.916-60 60v12.933h-121v40h33.573l33.105 344.685c2.917 31.003 28.597 54.382 59.737 54.382h111.135c-13.323-11.432-24.825-24.929-33.99-40zm-42.56-412c0-11.028 8.972-20 20-20h70c11.028 0 20 8.972 20 20v12.933h-110zm165 205h40v137h-40zm146 121c0 69.477-56.523 126-126 126s-126-56.523-126-126c0-47.769 26.721-89.415 66-110.775v49.246c-16.023 15.629-26 37.43-26 61.529 0 47.421 38.58 86 86 86s86-38.579 86-86c0-24.099-9.977-45.9-26-61.529v-49.246c39.279 21.36 66 63.006 66 110.775z"/></svg>