<svg id="Layer_1" enable-background="new 0 0 512 512" height="512" viewBox="0 0 512 512" width="512" xmlns="http://www.w3.org/2000/svg"><path d="m512 472v40h-512v-40h84v-67h40v67h265v-432h-265v37h-40v-77h345v472zm-161-217.5c0-10.77-8.73-19.5-19.5-19.5s-19.5 8.73-19.5 19.5 8.73 19.5 19.5 19.5 19.5-8.73 19.5-19.5zm-143 110.5h-208v-163h43.983v-26.014c0-32.525 26.916-58.986 60-58.986v.001-.001c33.084 0 60 26.461 60 58.986v26.014h44.017zm-124.017-163h40v-26.014c0-10.469-8.972-18.986-20-18.986v-.001.001c-11.028 0-20 8.517-20 18.986zm84.017 40h-128v83h128z"/></svg>