<svg id="Layer_1" enable-background="new 0 0 512 512" height="512" viewBox="0 0 512 512" width="512" xmlns="http://www.w3.org/2000/svg"><path d="m452 386c33.084 0 60-26.916 60-60v-266c0-33.084-26.916-60-60-60h-392c-33.084 0-60 26.916-60 60v266c0 33.084 26.916 60 60 60h176v86h-236v40h512v-40h-236v-86zm-412-60v-266c0-11.028 8.972-20 20-20h392c11.028 0 20 8.972 20 20v266c0 11.028-8.972 20-20 20h-392c-11.028 0-20-8.972-20-20zm392.122-132c0 11.046-8.954 20-20 20s-20-8.954-20-20c0-11.046 8.954-20 20-20 11.045 0 20 8.954 20 20zm-239.122-5h40v40h-40zm-113.254-.722 26.958 29.551 7.289-6.65v43.821c0 27.57 22.43 50 50 50h97c27.57 0 50-22.43 50-50v-43.82l7.289 6.65 26.958-29.551-132.747-121.103zm191.247 66.722c0 5.514-4.486 10-10 10h-97c-5.514 0-10-4.486-10-10v-80.311l58.5-53.368 58.5 53.368z"/></svg>