<svg id="Layer_1" enable-background="new 0 0 512 512" height="512" viewBox="0 0 512 512" width="512" xmlns="http://www.w3.org/2000/svg"><path d="m181.721 373c-9.25-42.325-38.938-81.068-67.831-118.743-27.433-35.769-53.581-69.889-61.597-104.257h340.949c-2.151 9.173-5.585 18.348-9.981 27.556 13.779 1.017 27.341 3.428 40.528 7.176 7.427-17.906 11.99-36.408 11.99-55.732 0-45.876-26.405-81.922-76.361-104.241-48.22-21.542-105.68-24.759-135.639-24.759-30.041 0-87.73 3.222-136.563 24.797-64.002 28.278-77.437 72.352-77.437 104.346 0 55.091 36.79 103.063 72.37 149.456 32.15 41.923 62.63 81.521 62.63 120.813v52.588c0 33.084 26.805 60 59.889 60h38.223c33.084 0 59.889-26.916 59.889-60v-41.771l-36.441-37.229zm42.058-333c26.774 0 77.878 2.765 119.322 21.28 27.439 12.259 43.954 28.306 50.019 48.72h-340.512c21.182-67.879 154.78-70 171.171-70zm39.112 412c0 11.028-8.972 20-20 20h-38.223c-11.028 0-20-8.972-20-20v-39h78.223zm239.33-169.643-28.362 28.207-14.103-14.181c-25.258-25.397-57.743-39.384-91.471-39.383-33.736.001-66.221 13.987-91.47 39.381l-14.102 14.183-28.365-28.203 14.102-14.183c32.813-33.001 75.371-51.177 119.834-51.178 44.454-.001 87.012 18.173 119.833 51.176zm-114.589 113.643c0 11.046-8.954 20-20 20s-20-8.954-20-20 8.954-20 20-20 20 8.954 20 20zm63.194-59.723-28.269 28.299-14.15-14.134c-10.607-10.595-26.657-17.442-40.657-17.442-13.711 0-29.483 6.846-40.09 17.442l-14.15 14.134-28.269-28.299 14.15-14.135c17.994-17.975 44.165-29.142 68.296-29.142 23.969 0 50.993 11.166 68.989 29.143z"/></svg>