<svg id="Layer_1" enable-background="new 0 0 512 512" height="512" viewBox="0 0 512 512" width="512" xmlns="http://www.w3.org/2000/svg"><path d="m472 370.425v-284.013h-40v269h-352v-269h-40v284.013l-40 95.986v39h512v-39zm-156 94.987v-19h-120v19h-152.25l29.171-70h366.157l29.171 70zm-39.985-297h-40v-40h40zm-119.008-17.821v43.82c0 27.57 22.43 50 50 50h97c27.57 0 50-22.43 50-50v-43.82l7.289 6.65 26.958-29.551-132.747-121.102-132.747 121.102 26.958 29.551zm157-36.49v80.311c0 5.514-4.486 10-10 10h-97c-5.514 0-10-4.486-10-10v-80.311l58.5-53.368z"/></svg>