<svg id="Layer_1" enable-background="new 0 0 512.51 512.51" height="512" viewBox="0 0 512.51 512.51" width="512" xmlns="http://www.w3.org/2000/svg"><path d="m202.917 509.349c.555.997 1.135 1.974 1.727 2.942h-95.389c-33.084 0-60-26.916-60-60v-209.086l-22.296 20.34-26.959-29.55 256.255-233.776 256.255 233.776-26.959 29.55-24.296-22.165v69.71l-40-60.799v-45.401l-165-150.526-167 152.351v245.577c0 11.028 8.972 20 20 20h83.13c.584 12.78 4.085 25.482 10.532 37.057zm302.65-64.066-96.491-146.664c-8.008-12.736-21.749-20.328-36.821-20.328s-28.813 7.592-36.821 20.328l-96.34 146.435-.296.463c-8.329 13.45-8.688 30.451-.936 44.368 7.698 13.821 22.229 22.406 37.923 22.406h36.47v-40h-36.47c-1.285 0-2.287-.629-2.978-1.871-.499-.896-.907-2.254-.084-3.706l96.256-146.309.297-.464c.678-1.095 1.68-1.65 2.979-1.65s2.301.555 2.979 1.65l.146.234 96.407 146.539c.823 1.452.415 2.811-.084 3.706-.69 1.241-1.692 1.871-2.978 1.871h-36.47v40h36.47c15.693 0 30.225-8.585 37.923-22.406 7.752-13.917 7.394-30.917-.936-44.368zm-153.312 67.008h40v-40h-40zm0-63.111h40v-71.889h-40z"/></svg>