<svg id="Layer_1" enable-background="new 0 0 512 512" height="512" viewBox="0 0 512 512" width="512" xmlns="http://www.w3.org/2000/svg"><path d="m276 412.122c0 11.046-8.954 20-20 20s-20-8.954-20-20 8.954-20 20-20 20 8.954 20 20zm168-352.122v392c0 33.084-26.916 60-60 60h-256c-33.084 0-60-26.916-60-60v-392c0-33.084 26.916-60 60-60h256c33.084 0 60 26.916 60 60zm-40 0c0-11.028-8.972-20-20-20h-256c-11.028 0-20 8.972-20 20v392c0 11.028 8.972 20 20 20h256c11.028 0 20-8.972 20-20zm-84 79.5c0 27.639-18.638 50.992-44 58.194v154.306h-80v-40h40v-30h-40v-40h40v-44.061c-25.314-6.839-44-30.492-44-57.939 0-32.809 26.691-60 59.5-60h9c32.809 0 59.5 26.691 59.5 59.5zm-40 0c0-10.752-8.748-19.5-19.5-19.5h-9c-10.752 0-19.5 9.248-19.5 20s8.748 20 19.5 20h8c11.304 0 20.5-9.196 20.5-20.5z"/></svg>