<svg id="Layer_1" enable-background="new 0 0 512 512" height="512" viewBox="0 0 512 512" width="512" xmlns="http://www.w3.org/2000/svg"><path d="m276 355c0 11.046-8.954 20-20 20s-20-8.954-20-20 8.954-20 20-20 20 8.954 20 20zm-20-103c-24.13 0-50.245 11.167-68.241 29.142l-14.15 14.134 28.268 28.3 14.15-14.134c10.609-10.596 27.271-17.442 40.981-17.442 13.55 0 29.16 6.847 39.769 17.443l14.15 14.134 28.268-28.3-14.15-14.134c-17.998-17.977-45.076-29.143-69.045-29.143zm202-148v224c0 66.168-53.832 120-120 120h-62v64h-40v-64h-62c-66.168 0-120-53.832-120-120v-224h100v-104h40v104h124v-104h40v104zm-40 40h-324v184c0 44.112 35.888 80 80 80h164c44.112 0 80-35.888 80-80zm-252.817 111.381c25.249-25.394 57.734-39.38 91.471-39.381 33.728-.001 66.212 13.985 91.471 39.383l14.104 14.181 28.361-28.207-14.104-14.181c-32.821-33.002-75.38-51.177-119.834-51.176-44.463.001-87.021 18.176-119.834 51.178l-14.102 14.183 28.365 28.203z"/></svg>