<svg id="Layer_1" enable-background="new 0 0 512 512" height="512" viewBox="0 0 512 512" width="512" xmlns="http://www.w3.org/2000/svg"><path d="m512 472v40h-512v-40h99v-46h40v46h264v-432h-264v31h-40v-71h344v472zm-147-217.5c0-10.77-8.73-19.5-19.5-19.5s-19.5 8.73-19.5 19.5 8.73 19.5 19.5 19.5 19.5-8.73 19.5-19.5zm-365-17.198v-52.302c0-19.717 14.096-36.562 33.517-40.053 24.103-4.333 47.043-18.534 55.788-24.438 9.121-6.159 19.735-9.414 30.695-9.414s21.574 3.255 30.695 9.414c8.745 5.904 31.686 20.105 55.789 24.438 19.42 3.491 33.516 20.336 33.516 40.053v52.302c0 93.953-107.28 142.922-111.848 144.961l-8.152 3.639-8.152-3.639c-4.568-2.038-111.848-51.008-111.848-144.961zm40 0c0 55.723 58.1 92.441 79.968 104.285 21.817-11.893 80.032-48.832 80.032-104.285v-52.302c0-.34-.244-.622-.593-.684h-.001c-30.466-5.478-57.62-21.559-71.095-30.657-2.484-1.678-5.358-2.564-8.312-2.564s-5.827.887-8.313 2.565c-13.474 9.098-40.628 25.178-71.094 30.656-.348.062-.592.344-.592.684z"/></svg>