<svg id="Layer_1" enable-background="new 0 0 513.284 513.284" height="512" viewBox="0 0 513.284 513.284" width="512" xmlns="http://www.w3.org/2000/svg"><path d="m174.061 179.085c-10.608-10.596-26.227-17.443-39.776-17.443-13.71 0-30.364 6.846-40.974 17.443l-14.15 14.134-28.268-28.3 14.15-14.134c17.996-17.975 45.121-29.142 69.251-29.142 23.969 0 50.037 11.166 68.034 29.142l14.15 14.134-28.268 28.3zm-131.594-54.062c25.249-25.394 57.734-39.38 91.471-39.381 33.728-.001 66.212 13.985 91.471 39.383l14.104 14.181 28.361-28.207-14.104-14.181c-32.821-33.002-75.38-51.177-119.834-51.176-44.463.001-87.021 18.176-119.834 51.178l-14.102 14.182 28.365 28.203zm387.817-124.381c-45.767 0-83 37.233-83 83h40c0-23.71 19.29-43 43-43s43 19.29 43 43v127h-87.675c1.072-2.451 1.675-5.154 1.675-8 0-11.046-8.954-20-20-20s-20 8.954-20 20c0 2.846.604 5.549 1.675 8h-154.675v40h279v6c0 70.098-32.35 112.897-59.486 136.458-33.181 28.807-70.061 39.542-85.514 39.542h-142c-15.453 0-52.333-10.735-85.514-39.542-27.137-23.561-59.486-66.36-59.486-136.458v-6h32v-40h-72v46c0 112.259 69.51 175.687 128.243 201.781-13.175 14.266-21.243 33.315-21.243 54.219h40c0-22.056 17.944-40 40-40h138c22.056 0 40 17.944 40 40h40c0-20.904-8.068-39.953-21.243-54.219 58.733-26.094 128.243-89.521 128.243-201.781v-173c0-45.767-37.233-83-83-83zm-317 224c0 11.046 8.954 20 20 20s20-8.954 20-20-8.954-20-20-20-20 8.954-20 20zm254-72c11.046 0 20-8.954 20-20s-8.954-20-20-20-20 8.954-20 20 8.954 20 20 20z"/></svg>