<svg id="Layer_1" enable-background="new 0 0 512.068 512.068" height="512" viewBox="0 0 512.068 512.068" width="512" xmlns="http://www.w3.org/2000/svg"><path d="m397.034 492.068c0 11.046-8.954 20-20 20s-20-8.954-20-20 8.954-20 20-20 20 8.955 20 20zm-18.988-103c-24.13 0-51.258 11.167-69.253 29.144l-14.15 14.134 28.269 28.3 14.15-14.135c10.608-10.597 27.261-17.442 40.972-17.442 13.549 0 29.167 6.847 39.775 17.442l14.15 14.135 28.269-28.3-14.15-14.134c-17.997-17.979-44.063-29.144-68.032-29.144zm93.988 123h40v-74.986l-40 40.043zm-216-512.068-256 171.39v340.679h120v-159h92.524l16.929-17.025c8.42-8.468 17.379-16.131 26.776-22.975h-136.229v-40h272c13.593.96 26.975 3.283 40 6.902v-46.902h-352v239h-40v-279.322l216-144.61 216 144.61v103.526c14.118 7.348 27.527 16.378 40 26.977v-151.86zm255.589 378.425-14.104-14.181c-32.822-33.002-75.379-51.177-119.833-51.176-44.463.001-87.021 18.177-119.834 51.178l-14.102 14.183 28.365 28.203 14.102-14.183c25.25-25.395 57.734-39.38 91.47-39.381 33.728-.001 66.213 13.985 91.471 39.383l14.103 14.181z"/></svg>