<svg id="Layer_1" enable-background="new 0 0 512 512" height="512" viewBox="0 0 512 512" width="512" xmlns="http://www.w3.org/2000/svg"><path d="m394.5 512h-277c-33.084 0-60-26.916-60-60v-392c0-33.084 26.916-60 60-60h277c33.084 0 60 26.916 60 60v392c0 33.084-26.916 60-60 60zm-277-472c-11.028 0-20 8.972-20 20v392c0 11.028 8.972 20 20 20h277c11.028 0 20-8.972 20-20v-392c0-11.028-8.972-20-20-20zm253 208v-50h-50v50zm-90 0v-50h-50v50zm90 180v-50h-50v50zm-90 0v-50h-50v50zm-90 0v-50h-50v50zm0-90v-50h-50v50zm90 0v-50h-50v50zm90 0v-50h-50v50zm-180-90v-50h-50v50zm0-118v-50h-50v50z"/></svg>