<svg id="Layer_1" enable-background="new 0 0 512.425 512.425" height="512" viewBox="0 0 512.425 512.425" width="512" xmlns="http://www.w3.org/2000/svg"><path d="m438.82 239.425c-35.565 0-65.305 25.393-72.057 59h-78.322c-6.584-10.223-18.057-17-31.121-17-20.435 0-37 16.565-37 37 0 13.048 6.76 24.51 16.963 31.098v33.902c0 11.046 8.954 20 20 20 11.045 0 20-8.955 20-20v-33.855c4.471-2.872 8.281-6.677 11.158-11.145h78.196c6.477 33.953 36.371 59.703 72.183 59.703 40.528 0 73.5-32.972 73.5-73.5v-11.703c0-40.528-32.972-73.5-73.5-73.5zm33.5 85.203c0 18.472-15.028 33.5-33.5 33.5s-33.5-15.028-33.5-33.5v-11.703c0-18.472 15.028-33.5 33.5-33.5s33.5 15.028 33.5 33.5zm-50 113.797h40v14c0 33.084-26.916 60-60 60h-292c-33.084 0-60-26.916-60-60v-220.616l-23.987 20.831-26.228-30.202 256.142-222.438 205.276 176.282-26.06 30.346-179.07-153.777-166.073 144.221v255.353c0 11.028 8.972 20 20 20h292c11.028 0 20-8.972 20-20z"/></svg>