<svg id="Layer_1" enable-background="new 0 0 512 512" height="512" viewBox="0 0 512 512" width="512" xmlns="http://www.w3.org/2000/svg"><path d="m162.51 165.767c-22.59 23.397-36.51 55.218-36.51 90.233 0 71.683 58.318 130 130 130s130-58.317 130-130c0-35.319-14.164-67.386-37.102-90.839l28.256-28.286c30.189 30.698 48.846 72.771 48.846 119.125 0 93.738-76.262 170-170 170s-170-76.262-170-170c0-46.05 18.414-87.875 48.254-118.52zm161.534-60.624c-17.996-17.977-44.065-29.143-68.034-29.143-24.131 0-51.257 11.167-69.251 29.143l-14.15 14.135 28.269 28.299 14.15-14.134c10.607-10.597 27.261-17.443 40.972-17.443 13.55 0 29.168 6.847 39.775 17.442l14.15 14.134 28.269-28.299zm-173.963-11.58 14.102-14.183c25.25-25.394 57.734-39.38 91.47-39.381 33.728-.001 66.213 13.985 91.471 39.383l14.103 14.181 28.362-28.207-14.104-14.181c-32.821-33.002-75.379-51.176-119.833-51.175-44.463.001-87.021 18.176-119.834 51.178l-14.102 14.182zm84.919 85.437c0 11.046 8.954 20 20 20s20-8.954 20-20-8.954-20-20-20-20 8.954-20 20zm61 77c0 11.046 8.954 20 20 20s20-8.954 20-20-8.954-20-20-20-20 8.954-20 20zm156-256h-74.927c9.396 6.843 18.355 14.503 26.774 22.969l16.938 17.031h31.215c11.028 0 20 8.972 20 20v392c0 11.028-8.972 20-20 20h-392c-11.028 0-20-8.972-20-20v-392c0-11.028 8.972-20 20-20h30.524l16.928-17.025c8.42-8.468 17.379-16.131 26.777-22.975h-74.229c-33.084 0-60 26.916-60 60v392c0 33.084 26.916 60 60 60h392c33.084 0 60-26.916 60-60v-392c0-33.084-26.916-60-60-60zm-256 236c-11.046 0-20 8.954-20 20s8.954 20 20 20 20-8.954 20-20-8.954-20-20-20z"/></svg>