<svg id="Layer_1" enable-background="new 0 0 512 512" height="512" viewBox="0 0 512 512" width="512" xmlns="http://www.w3.org/2000/svg"><path d="m327.873 398h40v1c0 32.749-26.377 59.437-59 59.975v53.025h-40v-53h-136v53h-40v-53c-33.084 0-60-26.916-60-60v-287c0-33.084 26.916-60 60-60v-52h40v52h136v-52h40v52.02c25.637.422 47.4 17.002 55.551 39.98h-56.551-98-117c-11.028 0-20 8.972-20 20v287c0 11.028 8.972 20 20 20h215c11.028 0 20-8.972 20-20zm-1-112h40v-40h-40zm125.296-11.171-7.289-6.65v43.821c0 27.57-22.43 50-50 50h-97c-27.57 0-50-22.43-50-50v-43.821l-7.289 6.65-26.958-29.551 132.747-121.102 132.747 121.102zm-47.289-43.14-58.5-53.368-58.5 53.368v80.311c0 5.514 4.486 10 10 10h97c5.514 0 10-4.486 10-10z"/></svg>