<svg id="Layer_1" enable-background="new 0 0 512.285 512.285" height="512" viewBox="0 0 512.285 512.285" width="512" xmlns="http://www.w3.org/2000/svg"><path d="m276.143 404.071c0 11.046-8.954 20-20 20s-20-8.954-20-20 8.954-20 20-20 20 8.955 20 20zm207.857 108.143-61.528-61.528c-46.325 39.719-104.66 61.385-166.33 61.385s-120.004-21.667-166.33-61.385l-61.528 61.528-28.284-28.285 61.528-61.528c-39.719-46.325-61.385-104.661-61.385-166.33 0-68.42 26.437-132.692 74.439-180.978 48.096-48.379 112.22-75.022 180.561-75.022 141.71 0 257 114.841 257 256 0 61.669-21.667 120.005-61.385 166.33l61.528 61.528zm-423.351-348.143h107.736c9.119-40.032 45.003-70 87.757-70s78.638 29.968 87.757 70h107.546c-34.773-73.218-109.687-124-196.302-124-85.818 0-160.041 50.782-194.494 124zm195.494-30c-27.57 0-50 22.43-50 50s22.43 50 50 50 50-22.43 50-50-22.43-50-50-50zm216 122c0-17.923-2.219-35.337-6.372-52h-121.872c-9.119 40.032-45.003 70-87.757 70s-78.638-29.968-87.757-70h-121.929c-4.115 16.663-6.313 34.077-6.313 52 0 119.103 96.897 216 216 216s216-96.897 216-216z"/></svg>