<svg id="Layer_1" enable-background="new 0 0 512 512" height="512" viewBox="0 0 512 512" width="512" xmlns="http://www.w3.org/2000/svg"><path d="m338.542 119.276-28.268 28.3-14.15-14.134c-10.608-10.595-26.574-17.442-40.124-17.442-13.71 0-30.017 6.846-40.626 17.443l-14.15 14.134-28.268-28.3 14.15-14.134c17.997-17.976 44.764-29.143 68.894-29.143 23.969 0 50.395 11.166 68.392 29.142zm-133.542 159.724h-40v40h40zm51-78c11.046 0 20-8.954 20-20s-8.954-20-20-20-20 8.954-20 20 8.954 20 20 20zm-91.47-121.619c25.249-25.394 57.734-39.38 91.471-39.381 33.728-.001 66.212 13.985 91.471 39.383l14.104 14.181 28.361-28.207-14.104-14.181c-32.821-33.003-75.38-51.177-119.834-51.176-44.463.001-87.021 18.176-119.834 51.178l-14.102 14.182 28.365 28.203zm74.47 302.619v-84c0-33.084 26.916-60 60-60h1c33.084 0 60 26.916 60 60v84c0 33.084-26.916 60-60 60h-1c-33.084 0-60-26.916-60-60zm40 0c0 11.028 8.972 20 20 20h1c11.028 0 20-8.972 20-20v-84c0-11.028-8.972-20-20-20h-1c-11.028 0-20 8.972-20 20zm-279 130h512v-40h-512zm495.173-256.176c10.851 11.239 16.827 26.218 16.827 42.176v84c0 15.958-5.976 30.937-16.827 42.176-11.097 11.494-26.074 17.824-42.173 17.824s-31.076-6.33-42.173-17.824c-10.851-11.239-16.827-26.218-16.827-42.176v-84c0-15.958 5.976-30.937 16.827-42.176 11.097-11.494 26.074-17.824 42.173-17.824s31.076 6.33 42.173 17.824zm-23.173 42.176c0-11.402-8.168-20-19-20s-19 8.598-19 20v84c0 11.402 8.168 20 19 20s19-8.598 19-20zm-472 84v-22.709c0-10.365 4.086-27.706 34.395-77.733 15.864-26.188 31.465-48.928 32.121-49.884l32.969 22.651c-.149.217-15.124 22.05-30.118 46.706-4.081 6.71-7.585 12.676-10.611 17.996.416-.009.828-.032 1.245-.032h10c33.084 0 60 26.916 60 60v3.005c0 33.084-26.916 60-60 60h-10.001c-33.084 0-60-26.916-60-60zm40 0c0 11.028 8.972 20 20 20h10c11.028 0 20-8.972 20-20v-3.004c0-11.028-8.972-20-20-20h-10c-11.028 0-20 8.972-20 20zm276-217v40h196v-40zm-121 0h-195v40h195zm-30 234h40v-40h-40z"/></svg>