<svg id="Layer_1" enable-background="new 0 0 512.51 512.51" height="512" viewBox="0 0 512.51 512.51" width="512" xmlns="http://www.w3.org/2000/svg"><path d="m110.255 472.291h60v40h-60c-33.084 0-60-26.916-60-60v-209.998l-23.296 21.252-26.959-29.55 256.255-233.776 256.255 233.776-26.959 29.551-23.296-21.252v29.998h-40v-66.489l-166-151.439-166 151.439v246.489c0 11.027 8.972 19.999 20 19.999zm252.559-160h149.44v40h-149.44c-8.256 23.278-30.487 40-56.56 40s-48.304-16.722-56.56-40h-39.44v-40h39.44c8.256-23.278 30.487-40 56.56-40s48.305 16.722 56.56 40zm-36.559 20c0-11.028-8.972-20-20-20s-20 8.972-20 20 8.972 20 20 20 20-8.972 20-20zm156.559 100h29.44v40h-29.44c-8.256 23.278-30.487 40-56.56 40s-48.304-16.722-56.56-40h-159.44v-40h159.44c8.256-23.278 30.487-40 56.56-40s48.305 16.722 56.56 40zm-36.559 20c0-11.028-8.972-20-20-20s-20 8.972-20 20 8.972 20 20 20 20-8.972 20-20z"/></svg>